<svg width="22" height="22" viewBox="0 0 22 22" fill="none" xmlns="http://www.w3.org/2000/svg">
<path d="M11.9817 5.65947C11.5962 5.26393 10.9631 5.25576 10.5676 5.64121C10.1721 6.02665 10.1639 6.65977 10.5493 7.0553L11.9817 5.65947ZM15.4 10.6001L16.1162 11.298C16.4946 10.9096 16.4946 10.2905 16.1162 9.90214L15.4 10.6001ZM10.5493 14.1448C10.1639 14.5403 10.1721 15.1735 10.5676 15.5589C10.9631 15.9444 11.5962 15.9362 11.9817 15.5406L10.5493 14.1448ZM6.31573 9.60006C5.76345 9.60006 5.31573 10.0478 5.31573 10.6001C5.31573 11.1523 5.76345 11.6001 6.31573 11.6001V9.60006ZM1 16.6001L0 16.6001L0 16.6001L1 16.6001ZM4.6 20.2001L4.6 21.2001H4.6V20.2001ZM4.6 1L4.6 0L4.6 1ZM1 4.6L2 4.6L2 4.6L1 4.6ZM20.2 4.6L19.2 4.6V4.6H20.2ZM16.6 1L16.6 2L16.6 1ZM20.2 16.6001L21.2 16.6001V16.6001H20.2ZM16.6 20.2001L16.6 19.2001H16.6V20.2001ZM10.5493 7.0553L14.6838 11.298L16.1162 9.90214L11.9817 5.65947L10.5493 7.0553ZM14.6838 9.90214L10.5493 14.1448L11.9817 15.5406L16.1162 11.298L14.6838 9.90214ZM15.4 9.60006H6.31573V11.6001H15.4V9.60006ZM21.2 16.6001V4.6H19.2V16.6001H21.2ZM16.6 1.04907e-06L4.6 0L4.6 2L16.6 2L16.6 1.04907e-06ZM2.19349e-06 4.6L0 16.6001L2 16.6001L2 4.6L2.19349e-06 4.6ZM4.6 21.2001H16.6V19.2001H4.6V21.2001ZM0 16.6001C-3.73524e-07 19.1406 2.05949 21.2001 4.6 21.2001L4.6 19.2001C3.16406 19.2001 2 18.0361 2 16.6001L0 16.6001ZM4.6 0C2.05949 -2.22097e-07 2.56702e-06 2.05949 2.19349e-06 4.6L2 4.6C2 3.16406 3.16406 2 4.6 2L4.6 0ZM21.2 4.6C21.2 2.05949 19.1405 1.27117e-06 16.6 1.04907e-06L16.6 2C18.0359 2 19.2 3.16406 19.2 4.6L21.2 4.6ZM19.2 16.6001C19.2 18.0361 18.0359 19.2001 16.6 19.2001L16.6 21.2001C19.1405 21.2001 21.2 19.1406 21.2 16.6001L19.2 16.6001Z" fill="white"/>
</svg>
