<svg width="22" height="22" viewBox="0 0 22 22" fill="none" xmlns="http://www.w3.org/2000/svg">
<path d="M12.3817 6.05937C11.9963 5.66384 11.3632 5.65566 10.9676 6.04111C10.5721 6.42656 10.5639 7.05967 10.9494 7.4552L12.3817 6.05937ZM15.8 11L16.5162 11.6979C16.8946 11.3095 16.8946 10.6904 16.5162 10.302L15.8 11ZM10.9494 14.5447C10.5639 14.9402 10.5721 15.5734 10.9676 15.9588C11.3632 16.3443 11.9963 16.3361 12.3817 15.9405L10.9494 14.5447ZM6.71576 9.99996C6.16347 9.99996 5.71576 10.4477 5.71576 11C5.71576 11.5522 6.16347 12 6.71576 12V9.99996ZM1.40002 17L0.400024 17L0.400024 17L1.40002 17ZM5.00002 20.6L5.00002 21.6H5.00002V20.6ZM5.00003 1.3999L5.00003 0.399902L5.00003 1.3999ZM1.40003 4.9999L2.40003 4.9999L2.40003 4.9999L1.40003 4.9999ZM20.6 4.9999L19.6 4.9999V4.9999H20.6ZM17 1.3999L17 2.3999L17 1.3999ZM20.6 17L21.6 17V17H20.6ZM17 20.6L17 19.6H17V20.6ZM10.9494 7.4552L15.0838 11.6979L16.5162 10.302L12.3817 6.05937L10.9494 7.4552ZM15.0838 10.302L10.9494 14.5447L12.3817 15.9405L16.5162 11.6979L15.0838 10.302ZM15.8 9.99996H6.71576V12H15.8V9.99996ZM21.6 17V4.9999H19.6V17H21.6ZM17 0.399903L5.00003 0.399902L5.00003 2.3999L17 2.3999L17 0.399903ZM0.400027 4.9999L0.400024 17L2.40002 17L2.40003 4.9999L0.400027 4.9999ZM5.00002 21.6H17V19.6H5.00002V21.6ZM0.400024 17C0.400024 19.5405 2.45951 21.6 5.00002 21.6L5.00002 19.6C3.56408 19.6 2.40002 18.436 2.40002 17L0.400024 17ZM5.00003 0.399902C2.45952 0.399902 0.400027 2.45939 0.400027 4.9999L2.40003 4.9999C2.40003 3.56396 3.56409 2.3999 5.00003 2.3999L5.00003 0.399902ZM21.6 4.9999C21.6 2.45939 19.5405 0.399904 17 0.399903L17 2.3999C18.436 2.3999 19.6 3.56396 19.6 4.9999L21.6 4.9999ZM19.6 17C19.6 18.436 18.436 19.6 17 19.6L17 21.6C19.5405 21.6 21.6 19.5405 21.6 17L19.6 17Z" fill="#A3B4C6"/>
</svg>
