<svg width="32" height="32" viewBox="0 0 32 32" fill="none" xmlns="http://www.w3.org/2000/svg">
<rect width="32" height="32" rx="10" fill="#6B7890"/>
<circle cx="15.7185" cy="15.7185" r="11.3161" stroke="white"/>
<path d="M18.5707 22.3402C18.3828 22.5426 18.0664 22.5543 17.8641 22.3664C17.6617 22.1785 17.65 21.8621 17.8379 21.6598L18.5707 22.3402ZM22 17.9123L22.3664 17.5721C22.5445 17.7639 22.5445 18.0607 22.3664 18.2525L22 17.9123ZM17.8379 14.1648C17.65 13.9625 17.6617 13.6461 17.8641 13.4582C18.0664 13.2703 18.3828 13.282 18.5707 13.4844L17.8379 14.1648ZM9.5 10C9.5 9.72386 9.72386 9.5 10 9.5C10.2761 9.5 10.5 9.72386 10.5 10H9.5ZM17.8379 21.6598L21.6336 17.5721L22.3664 18.2525L18.5707 22.3402L17.8379 21.6598ZM21.6336 18.2525L17.8379 14.1648L18.5707 13.4844L22.3664 17.5721L21.6336 18.2525ZM22 18.4123H14V17.4123H22V18.4123ZM9.5 13.9123V10H10.5V13.9123H9.5ZM14 18.4123C11.5147 18.4123 9.5 16.3976 9.5 13.9123H10.5C10.5 15.8453 12.067 17.4123 14 17.4123V18.4123Z" fill="white"/>
</svg>
