<svg width="22" height="22" viewBox="0 0 22 22" fill="none" xmlns="http://www.w3.org/2000/svg">
<path d="M10.6 20.2C5.29807 20.2 1 15.9019 1 10.6C1 5.29807 5.29807 1 10.6 1C14.6289 1 18.078 3.4818 19.5022 7M2.2 14.2H5C6.10457 14.2 7 13.3046 7 12.2V9.6C7 8.49543 7.89543 7.6 9 7.6H11C12.1046 7.6 13 6.70457 13 5.6V2.2M16.84 14.44V14.3678M20.68 14.3565C20.68 16.8609 16.84 20.2 16.84 20.2C16.84 20.2 13 16.8609 13 14.3565C13 12.2819 14.7192 10.6 16.84 10.6C18.9608 10.6 20.68 12.2819 20.68 14.3565Z" stroke="#1E51DA" stroke-width="2" stroke-linecap="round" stroke-linejoin="round"/>
</svg>
