<svg width="24" height="24" viewBox="0 0 24 24" fill="none" xmlns="http://www.w3.org/2000/svg">
<path d="M10 9.5999C10 9.04762 9.55231 8.5999 9.00002 8.5999C8.44774 8.5999 8.00002 9.04762 8.00002 9.5999H10ZM8.00002 21.5999C8.00002 22.1522 8.44774 22.5999 9.00002 22.5999C9.55231 22.5999 10 22.1522 10 21.5999H8.00002ZM6.00002 3.3999H18V1.3999H6.00002V3.3999ZM20.6 5.9999V17.9999H22.6V5.9999H20.6ZM18 20.5999H6.00002V22.5999H18V20.5999ZM3.40002 17.9999V5.9999H1.40002V17.9999H3.40002ZM6.00002 20.5999C4.56408 20.5999 3.40002 19.4358 3.40002 17.9999H1.40002C1.40002 20.5404 3.45951 22.5999 6.00002 22.5999V20.5999ZM20.6 17.9999C20.6 19.4358 19.436 20.5999 18 20.5999V22.5999C20.5405 22.5999 22.6 20.5404 22.6 17.9999H20.6ZM18 3.3999C19.436 3.3999 20.6 4.56396 20.6 5.9999H22.6C22.6 3.45939 20.5405 1.3999 18 1.3999V3.3999ZM6.00002 1.3999C3.45951 1.3999 1.40002 3.45939 1.40002 5.9999H3.40002C3.40002 4.56396 4.56408 3.3999 6.00002 3.3999V1.3999ZM8.00002 9.5999V21.5999H10V9.5999H8.00002ZM3.00002 9.9999H21V7.9999H3.00002V9.9999Z" fill="black"/>
</svg>
