<svg width="22" height="17" viewBox="0 0 22 17" fill="none" xmlns="http://www.w3.org/2000/svg">
<path d="M7.62069 12.7818C7.62069 14.2278 6.43502 15.4 4.97241 15.4C3.50981 15.4 2.32414 14.2278 2.32414 12.7818M7.62069 12.7818C7.62069 11.3358 6.43502 10.1636 4.97241 10.1636C3.50981 10.1636 2.32414 11.3358 2.32414 12.7818M7.62069 12.7818H13.5793M2.32414 12.7818H1V2C1 1.44771 1.44772 1 2 1H13.5793V12.7818M19.5379 12.7818C19.5379 14.2278 18.3523 15.4 16.8897 15.4C15.4271 15.4 14.2414 14.2278 14.2414 12.7818M19.5379 12.7818C19.5379 11.3358 18.3523 10.1636 16.8897 10.1636C15.4271 10.1636 14.2414 11.3358 14.2414 12.7818M19.5379 12.7818H20.2V7.54545L16.8897 4.27273H13.5793V12.7818M14.2414 12.7818H13.5793" stroke="#1E51DA" stroke-width="2" stroke-linecap="round" stroke-linejoin="round"/>
</svg>
